<svg xmlns="http://www.w3.org/2000/svg"  viewBox="0 0 512 512" width="100px" height="100px"><path fill="#D6E5E5" d="M496.3,233.3c-0.4-1.1-0.9-2-1.6-3c-2.9-3.9-7.7-6-12.2-7.4c-12.2-3.6-25.9-4.5-36.4-12.3c-13.9-10.2-13.9-28.1-9.2-43.1c2.9-9.3,6.6-18.3,9.5-27.5c2.1-6.8,5.6-16.2,3.3-23.5c-4.6-14.6-27.1-3-35.7,1.2c-15,7.2-29,17.8-44.7,23.3c-2.5,0.9-4.8-0.1-6.4-2.1c-22.4-28.5-22.1-64.5-29.5-98.3C318.9,46,308.5,62.3,300,74c-9.4,12.9-19.8,30.4-35.6,36.1c-17,6.1-32.4-9.7-42.5-21.2c-6.3-7.2-12.3-14.7-19.1-21.5c-4.4-4.4-9.2-9-15-11.6c-7.4,22.2-10.3,46-21.6,66.8c-5.8,10.5-13.4,19.4-25.4,22.7c-13.3,3.6-27,2.3-40.5,1c-11.5-1.2-48.9-6.9-46.3,14.1c1.1,8.8,5.9,17,10.1,24.7c4.6,8.3,9.8,16.6,13.1,25.6c6.9,18.9,0.3,37-14.2,50.1c-13,11.8-28.9,19.8-42.9,30.3c11.3,6.3,22.7,12.4,34,18.8c10.8,6.1,24.3,12.2,31.8,22.6c5.7,7.9,5.7,16.9,1.5,25.5c-3.9,8-9.2,15.2-14,22.7c12.6,0.5,25.8-3.8,37.3-7.5c14-4.5,27.7-10.2,41.9-14.4c4.8-1.4,8,3.3,7.1,6.9c0.1,0.3,0.1,0.5,0.2,0.8c1.1,7.6-3.1,16-6.3,22.7c-5.2,10.7-11.4,20.8-17.6,30.9c-6.7,10.8-13.6,21.5-20.2,32.3c-1.9,3.2-3.9,6.4-5.8,9.6c14.6-9.4,30.3-16.9,45.8-24.7c20.5-10.2,41.7-21,57.5-38.1c1.6-1.7,4.4-2.6,6.6-1.3c20.1,11.8,34.8,30.2,52.8,44.6c1.2-3.4,2.1-7.4,2.8-10.6c1.6-6.9,3-14,5-20.8c3.3-11.5,8.4-26.8,22-29.1c13.4-2.3,27.5,7.8,38,14.8c9.6,6.4,19,14.5,29.6,19.7c2.4-10.2,1.4-21.7,2.8-31.9c1.6-11.6,4.9-24.8,16.3-30.4c10.7-5.3,24.1-6,35.8-6.8c9.9-0.7,19.7-0.9,29.6-1c-3-18-17.4-32.6-25.5-48.5c-1.4-2.8-1.1-5.7,1.5-7.6c10.4-7.7,21.6-14.5,32.2-22c11.4-8.1,24.7-16.7,32.7-28.3c1.2-1.7,1.7-2.8,1.8-4.2C497,236.5,496.6,234,496.3,233.3z"/><path d="M501.6,221.4c-4.9-5.2-11.8-7.8-18.6-9.7c-11.8-3.3-30.1-3.8-36-16.7c-6.7-14.6,3.2-32.2,7.9-45.9c4.9-14.2,11.9-34.1-1.3-46c-12-10.8-32.4-1-44.3,4.7c-8.4,4-16.5,8.6-24.6,13.2c-5,2.8-10,5.8-15.3,8.1c-19.9-28.4-18.7-64.5-26.7-97.2c-0.5-2.2-3.4-4.1-5.6-3.7c-17.8,3.5-30,17.8-40.4,31.6c-9.9,13.1-18.9,30-33.4,38.6c-13.7,8-28.7-11.7-36.4-20.4c-11.4-13.2-23.5-30.3-41.4-34.7c-2.2-0.5-5.2,0.8-6,3c-7.2,19.6-10.5,40.5-18,60c-3.3,8.4-7.5,17.7-14.5,23.7c-8.3,7-21.4,6.8-31.6,6.4c-20.2-0.9-47-8.9-64.6,5c-15.6,12.4-4.3,33.8,3.1,47.5c4.9,9.1,10.8,18,13.9,28c3.2,9.9,0.8,20.5-5.4,28.6c-6.8,8.8-16.5,15-25.7,21c-10,6.6-20.3,12.8-29.3,20.8c-3.1,2.8-3.3,7.3,0.6,9.5c11.6,6.6,23.3,12.9,35,19.3c10.9,6,23.4,11.8,32.4,20.7c5.7,5.6,4.6,11.6,1.3,18.1c-5,9.6-11.8,18.1-17.1,27.5c-1.8,3.2,0.6,7.1,3.9,7.8c15.4,3.6,32.2-1.2,47-5.6c13-3.9,25.5-9,38.3-13.3c-0.2,1-0.5,2.1-0.9,3.4c-1.3,4.1-3.3,8.1-5.3,12c-5.3,10.5-11.4,20.5-17.6,30.4c-6.5,10.4-13.1,20.7-19.5,31.2c-4.7,7.7-9.6,15.6-12.8,24c-0.5,1.4-0.5,2.8-0.1,3.9c-1.1,4.5,3.7,9.7,8.1,6.1c35.8-29.5,84.8-39.5,117.8-72.6c19.4,12.5,33.8,31.6,52.5,45.1c2.2,1.6,5.9,2.1,7.8-0.5c6.8-9.5,8.1-22.5,10.7-33.6c2-8.6,4.7-25.1,14.7-28.1c4.4-1.3,10.2,1.6,14,3.4c6.5,3,12.5,7,18.4,11c10.9,7.4,21.9,17.1,34.6,21.5c2.6,0.9,6.2,0.6,7.4-2.5c4.1-10.9,3.6-23.2,4.7-34.7c0.8-8.8,1.7-23.5,11.1-27.8c10.3-4.7,23-5,34.1-5.7c10.9-0.7,21.8-0.8,32.7-0.8c3.1,0,5.1-3.1,5.1-5.9c-0.4-21.2-15.2-37.4-25.4-55c11.1-7.9,22.8-15.1,33.8-23.1c7.4-5.4,14.6-11.1,21.3-17.3c4.8-4.5,9.9-9.9,11.9-16.4C509.5,233.3,505.9,226,501.6,221.4z M495.3,240c-8,11.7-21.4,20.3-32.7,28.3c-10.6,7.5-21.8,14.3-32.2,22c-2.6,2-2.9,4.9-1.5,7.6c8.1,15.9,22.5,30.4,25.5,48.5c-9.9,0.1-19.7,0.3-29.6,1c-11.7,0.8-25.1,1.6-35.8,6.8c-11.4,5.6-14.7,18.8-16.3,30.4c-1.4,10.2-0.4,21.7-2.8,31.9c-10.5-5.1-20-13.3-29.6-19.7c-10.5-7-24.6-17.1-38-14.8c-13.6,2.4-18.7,17.6-22,29.1c-2,6.9-3.4,13.9-5,20.8c-0.8,3.2-1.6,7.2-2.8,10.6c-18-14.5-32.6-32.9-52.8-44.6c-2.1-1.3-5-0.4-6.6,1.3c-15.8,17.1-37,27.9-57.5,38.1c-15.5,7.7-31.3,15.3-45.8,24.7c1.9-3.2,3.9-6.4,5.8-9.6c6.6-10.9,13.5-21.5,20.2-32.3c6.2-10.1,12.4-20.2,17.6-30.9c3.2-6.6,7.4-15,6.3-22.7c0-0.3-0.1-0.6-0.2-0.8c0.9-3.6-2.3-8.3-7.1-6.9c-14.2,4.1-27.8,9.9-41.9,14.4c-11.5,3.7-24.7,8-37.3,7.5c4.8-7.5,10.1-14.7,14-22.7c4.2-8.6,4.2-17.6-1.5-25.5c-7.5-10.3-21-16.4-31.8-22.6c-11.2-6.4-22.7-12.5-34-18.8c14-10.6,29.8-18.6,42.9-30.3c14.5-13.1,21-31.2,14.2-50.1c-3.3-9-8.5-17.3-13.1-25.6c-4.2-7.6-9-15.9-10.1-24.7c-2.6-21,34.8-15.3,46.3-14.1c13.5,1.4,27.2,2.6,40.5-1c12-3.2,19.6-12.1,25.4-22.7c11.3-20.7,14.2-44.6,21.6-66.8c5.7,2.6,10.6,7.2,15,11.6c6.8,6.8,12.8,14.3,19.1,21.5c10.1,11.5,25.5,27.3,42.5,21.2c15.9-5.7,26.2-23.2,35.6-36.1c8.5-11.7,18.9-28,33.4-33.4c7.4,33.8,7.1,69.8,29.5,98.3c1.5,2,3.9,3,6.4,2.1C385,135.6,399,125,414,117.8c8.6-4.2,31.1-15.8,35.7-1.2c2.3,7.2-1.2,16.6-3.3,23.5c-2.9,9.3-6.5,18.3-9.5,27.5c-4.7,15-4.7,32.9,9.2,43.1c10.5,7.8,24.2,8.7,36.4,12.3c4.6,1.3,9.4,3.4,12.2,7.4c0.7,0.9,1.1,1.9,1.6,3c0.3,0.7,0.7,3.1,0.8,2.5C497,237.2,496.5,238.3,495.3,240z"/></svg>